<svg width="300" height="300" viewBox="0 0 300 300" fill="none" xmlns="http://www.w3.org/2000/svg">
  <defs>
    <linearGradient id="avatarGradient" x1="0%" y1="0%" x2="100%" y2="100%">
      <stop offset="0%" style="stop-color:#667eea;stop-opacity:1" />
      <stop offset="50%" style="stop-color:#764ba2;stop-opacity:1" />
      <stop offset="100%" style="stop-color:#f093fb;stop-opacity:1" />
    </linearGradient>
    <linearGradient id="faceGradient" x1="0%" y1="0%" x2="100%" y2="100%">
      <stop offset="0%" style="stop-color:#ffeaa7;stop-opacity:1" />
      <stop offset="100%" style="stop-color:#fab1a0;stop-opacity:1" />
    </linearGradient>
    <filter id="avatarGlow">
      <feGaussianBlur stdDeviation="2" result="coloredBlur"/>
      <feMerge> 
        <feMergeNode in="coloredBlur"/>
        <feMergeNode in="SourceGraphic"/>
      </feMerge>
    </filter>
  </defs>
  
  <!-- Background circle -->
  <circle cx="150" cy="150" r="140" fill="url(#avatarGradient)" filter="url(#avatarGlow)"/>
  
  <!-- Face -->
  <ellipse cx="150" cy="130" rx="50" ry="60" fill="url(#faceGradient)"/>
  
  <!-- Hair -->
  <path d="M100 100 Q150 80 200 100 Q180 120 150 110 Q120 120 100 100" fill="#2d3436"/>
  
  <!-- Eyes -->
  <ellipse cx="135" cy="120" rx="8" ry="12" fill="#2d3436"/>
  <ellipse cx="165" cy="120" rx="8" ry="12" fill="#2d3436"/>
  <circle cx="135" cy="118" r="3" fill="#ffffff"/>
  <circle cx="165" cy="118" r="3" fill="#ffffff"/>
  
  <!-- Nose -->
  <ellipse cx="150" cy="135" rx="3" ry="8" fill="#e17055"/>
  
  <!-- Mouth -->
  <path d="M140 150 Q150 160 160 150" stroke="#2d3436" stroke-width="2" fill="none"/>
  
  <!-- Body/Shirt -->
  <rect x="120" y="190" width="60" height="80" rx="30" fill="#74b9ff"/>
  
  <!-- Tie -->
  <rect x="145" y="190" width="10" height="60" fill="#2d3436"/>
  <path d="M145 190 L150 200 L155 190" fill="#2d3436"/>
  
  <!-- Tech elements around -->
  <g transform="translate(150, 150)">
    <circle cx="0" cy="-100" r="15" fill="rgba(255,255,255,0.2)" filter="url(#avatarGlow)"/>
    <circle cx="100" cy="0" r="12" fill="rgba(255,255,255,0.15)" filter="url(#avatarGlow)"/>
    <circle cx="0" cy="100" r="10" fill="rgba(255,255,255,0.1)" filter="url(#avatarGlow)"/>
    <circle cx="-100" cy="0" r="8" fill="rgba(255,255,255,0.2)" filter="url(#avatarGlow)"/>
  </g>
  
  <!-- Data visualization elements -->
  <g transform="translate(150, 150)">
    <rect x="-80" y="-20" width="3" height="40" fill="rgba(255,255,255,0.3)" rx="1"/>
    <rect x="-70" y="-10" width="3" height="30" fill="rgba(255,255,255,0.4)" rx="1"/>
    <rect x="-60" y="-15" width="3" height="35" fill="rgba(255,255,255,0.3)" rx="1"/>
    <rect x="-50" y="-5" width="3" height="25" fill="rgba(255,255,255,0.4)" rx="1"/>
  </g>
  
  <!-- Network lines -->
  <g stroke="rgba(255,255,255,0.2)" stroke-width="1" fill="none">
    <line x1="150" y1="50" x2="250" y2="150"/>
    <line x1="250" y1="150" x2="150" y2="250"/>
    <line x1="150" y1="250" x2="50" y2="150"/>
    <line x1="50" y1="150" x2="150" y2="50"/>
  </g>
</svg>