<svg width="600" height="400" viewBox="0 0 600 400" fill="none" xmlns="http://www.w3.org/2000/svg">
  <defs>
    <linearGradient id="heroGradient" x1="0%" y1="0%" x2="100%" y2="100%">
      <stop offset="0%" style="stop-color:#667eea;stop-opacity:1" />
      <stop offset="50%" style="stop-color:#764ba2;stop-opacity:1" />
      <stop offset="100%" style="stop-color:#f093fb;stop-opacity:1" />
    </linearGradient>
    <linearGradient id="accentGradient" x1="0%" y1="0%" x2="100%" y2="100%">
      <stop offset="0%" style="stop-color:#4facfe;stop-opacity:1" />
      <stop offset="100%" style="stop-color:#00f2fe;stop-opacity:1" />
    </linearGradient>
    <filter id="glow">
      <feGaussianBlur stdDeviation="3" result="coloredBlur"/>
      <feMerge> 
        <feMergeNode in="coloredBlur"/>
        <feMergeNode in="SourceGraphic"/>
      </feMerge>
    </filter>
  </defs>
  
  <!-- Background -->
  <rect width="600" height="400" fill="url(#heroGradient)"/>
  
  <!-- Abstract geometric shapes -->
  <circle cx="100" cy="80" r="40" fill="rgba(255,255,255,0.1)" filter="url(#glow)"/>
  <circle cx="500" cy="120" r="60" fill="rgba(255,255,255,0.08)" filter="url(#glow)"/>
  <circle cx="450" cy="300" r="35" fill="rgba(255,255,255,0.12)" filter="url(#glow)"/>
  <circle cx="150" cy="320" r="50" fill="rgba(255,255,255,0.06)" filter="url(#glow)"/>
  
  <!-- Floating elements -->
  <rect x="200" y="60" width="80" height="80" rx="20" fill="rgba(255,255,255,0.1)" transform="rotate(45 240 100)" filter="url(#glow)"/>
  <rect x="350" y="200" width="60" height="60" rx="15" fill="rgba(255,255,255,0.08)" transform="rotate(-30 380 230)" filter="url(#glow)"/>
  <rect x="80" y="200" width="100" height="40" rx="20" fill="rgba(255,255,255,0.1)" transform="rotate(15 130 220)" filter="url(#glow)"/>
  
  <!-- Tech elements -->
  <g transform="translate(300, 200)">
    <circle cx="0" cy="0" r="80" fill="none" stroke="rgba(255,255,255,0.2)" stroke-width="2"/>
    <circle cx="0" cy="0" r="60" fill="none" stroke="rgba(255,255,255,0.15)" stroke-width="1"/>
    <circle cx="0" cy="0" r="40" fill="none" stroke="rgba(255,255,255,0.1)" stroke-width="1"/>
    <circle cx="0" cy="0" r="20" fill="rgba(255,255,255,0.1)"/>
  </g>
  
  <!-- Data visualization elements -->
  <g transform="translate(150, 150)">
    <rect x="0" y="0" width="4" height="60" fill="url(#accentGradient)" rx="2"/>
    <rect x="8" y="10" width="4" height="50" fill="url(#accentGradient)" rx="2"/>
    <rect x="16" y="20" width="4" height="40" fill="url(#accentGradient)" rx="2"/>
    <rect x="24" y="5" width="4" height="55" fill="url(#accentGradient)" rx="2"/>
    <rect x="32" y="15" width="4" height="45" fill="url(#accentGradient)" rx="2"/>
  </g>
  
  <!-- Network connections -->
  <g stroke="rgba(255,255,255,0.3)" stroke-width="1" fill="none">
    <line x1="100" y1="80" x2="200" y2="100"/>
    <line x1="200" y1="100" x2="300" y2="200"/>
    <line x1="300" y1="200" x2="450" y2="300"/>
    <line x1="450" y1="300" x2="500" y2="120"/>
    <line x1="500" y1="120" x2="100" y2="80"/>
  </g>
  
  <!-- Floating particles -->
  <circle cx="120" cy="180" r="2" fill="rgba(255,255,255,0.6)"/>
  <circle cx="280" cy="120" r="3" fill="rgba(255,255,255,0.4)"/>
  <circle cx="420" cy="180" r="2" fill="rgba(255,255,255,0.5)"/>
  <circle cx="180" cy="280" r="2" fill="rgba(255,255,255,0.3)"/>
  <circle cx="380" cy="80" r="3" fill="rgba(255,255,255,0.4)"/>
</svg>