<svg width="600" height="400" viewBox="0 0 600 400" fill="none" xmlns="http://www.w3.org/2000/svg">
<rect width="600" height="400" fill="#F8FAFC"/>
<rect x="50" y="50" width="500" height="300" rx="10" fill="#FFFFFF" stroke="#E2E8F0" stroke-width="2"/>
<rect x="80" y="80" width="440" height="40" rx="5" fill="#EF4444"/>
<text x="300" y="105" font-family="Arial, sans-serif" font-size="16" fill="white" text-anchor="middle">Large Scale IT System Architecture</text>
<rect x="100" y="140" width="100" height="80" rx="5" fill="#F8FAFC" stroke="#E2E8F0" stroke-width="1"/>
<rect x="220" y="140" width="100" height="80" rx="5" fill="#F8FAFC" stroke="#E2E8F0" stroke-width="1"/>
<rect x="340" y="140" width="100" height="80" rx="5" fill="#F8FAFC" stroke="#E2E8F0" stroke-width="1"/>
<rect x="460" y="140" width="100" height="80" rx="5" fill="#F8FAFC" stroke="#E2E8F0" stroke-width="1"/>
<rect x="80" y="240" width="440" height="60" rx="5" fill="#10B981"/>
<text x="300" y="275" font-family="Arial, sans-serif" font-size="14" fill="white" text-anchor="middle">SK·Amorepacific Integration System</text>
<text x="150" y="200" font-family="Arial, sans-serif" font-size="10" fill="#4A5568" text-anchor="middle">Database</text>
<text x="270" y="200" font-family="Arial, sans-serif" font-size="10" fill="#4A5568" text-anchor="middle">API Gateway</text>
<text x="390" y="200" font-family="Arial, sans-serif" font-size="10" fill="#4A5568" text-anchor="middle">Microservices</text>
<text x="510" y="200" font-family="Arial, sans-serif" font-size="10" fill="#4A5568" text-anchor="middle">Frontend</text>
<line x1="150" y1="180" x2="270" y2="180" stroke="#CBD5E0" stroke-width="2"/>
<line x1="270" y1="180" x2="390" y2="180" stroke="#CBD5E0" stroke-width="2"/>
<line x1="390" y1="180" x2="510" y2="180" stroke="#CBD5E0" stroke-width="2"/>
</svg>
