<svg width="400" height="300" viewBox="0 0 400 300" fill="none" xmlns="http://www.w3.org/2000/svg">
  <defs>
    <linearGradient id="project3Gradient" x1="0%" y1="0%" x2="100%" y2="100%">
      <stop offset="0%" style="stop-color:#667eea;stop-opacity:1" />
      <stop offset="100%" style="stop-color:#764ba2;stop-opacity:1" />
    </linearGradient>
    <linearGradient id="serverGradient" x1="0%" y1="0%" x2="100%" y2="100%">
      <stop offset="0%" style="stop-color:#2c3e50;stop-opacity:1" />
      <stop offset="100%" style="stop-color:#34495e;stop-opacity:1" />
    </linearGradient>
    <filter id="serverGlow">
      <feGaussianBlur stdDeviation="2" result="coloredBlur"/>
      <feMerge> 
        <feMergeNode in="coloredBlur"/>
        <feMergeNode in="SourceGraphic"/>
      </feMerge>
    </filter>
  </defs>
  
  <!-- Background -->
  <rect width="400" height="300" fill="url(#project3Gradient)"/>
  
  <!-- Server rack -->
  <rect x="150" y="50" width="100" height="200" rx="5" fill="url(#serverGradient)" filter="url(#serverGlow)"/>
  
  <!-- Server units -->
  <rect x="160" y="70" width="80" height="15" rx="2" fill="#34495e"/>
  <rect x="160" y="95" width="80" height="15" rx="2" fill="#34495e"/>
  <rect x="160" y="120" width="80" height="15" rx="2" fill="#34495e"/>
  <rect x="160" y="145" width="80" height="15" rx="2" fill="#34495e"/>
  <rect x="160" y="170" width="80" height="15" rx="2" fill="#34495e"/>
  <rect x="160" y="195" width="80" height="15" rx="2" fill="#34495e"/>
  <rect x="160" y="220" width="80" height="15" rx="2" fill="#34495e"/>
  
  <!-- Status lights -->
  <circle cx="170" cy="78" r="2" fill="#27ae60"/>
  <circle cx="170" cy="103" r="2" fill="#f39c12"/>
  <circle cx="170" cy="128" r="2" fill="#27ae60"/>
  <circle cx="170" cy="153" r="2" fill="#e74c3c"/>
  <circle cx="170" cy="178" r="2" fill="#27ae60"/>
  <circle cx="170" cy="203" r="2" fill="#27ae60"/>
  <circle cx="170" cy="228" r="2" fill="#f39c12"/>
  
  <!-- Network connections -->
  <g stroke="rgba(255,255,255,0.3)" stroke-width="2" fill="none">
    <line x1="250" y1="100" x2="300" y2="80"/>
    <line x1="250" y1="120" x2="300" y2="100"/>
    <line x1="250" y1="140" x2="300" y2="120"/>
    <line x1="250" y1="160" x2="300" y2="140"/>
    <line x1="250" y1="180" x2="300" y2="160"/>
  </g>
  
  <!-- Network nodes -->
  <circle cx="300" cy="80" r="8" fill="rgba(255,255,255,0.2)" filter="url(#serverGlow)"/>
  <circle cx="300" cy="100" r="6" fill="rgba(255,255,255,0.15)" filter="url(#serverGlow)"/>
  <circle cx="300" cy="120" r="10" fill="rgba(255,255,255,0.1)" filter="url(#serverGlow)"/>
  <circle cx="300" cy="140" r="8" fill="rgba(255,255,255,0.2)" filter="url(#serverGlow)"/>
  <circle cx="300" cy="160" r="6" fill="rgba(255,255,255,0.15)" filter="url(#serverGlow)"/>
  
  <!-- Data flow visualization -->
  <g transform="translate(80, 100)">
    <rect x="0" y="0" width="4" height="40" fill="rgba(255,255,255,0.4)" rx="2"/>
    <rect x="8" y="5" width="4" height="35" fill="rgba(255,255,255,0.3)" rx="2"/>
    <rect x="16" y="10" width="4" height="30" fill="rgba(255,255,255,0.4)" rx="2"/>
    <rect x="24" y="0" width="4" height="40" fill="rgba(255,255,255,0.3)" rx="2"/>
    <rect x="32" y="8" width="4" height="32" fill="rgba(255,255,255,0.4)" rx="2"/>
  </g>
  
  <!-- Floating tech elements -->
  <g transform="translate(320, 200)">
    <rect x="0" y="0" width="20" height="20" fill="rgba(255,255,255,0.2)" rx="3" filter="url(#serverGlow)"/>
    <rect x="5" y="5" width="10" height="10" fill="rgba(255,255,255,0.4)" rx="2"/>
  </g>
  
  <g transform="translate(80, 180)">
    <circle cx="0" cy="0" r="15" fill="rgba(255,255,255,0.15)" filter="url(#serverGlow)"/>
    <circle cx="0" cy="0" r="8" fill="rgba(255,255,255,0.3)"/>
  </g>
  
  <!-- Network topology -->
  <g stroke="rgba(255,255,255,0.2)" stroke-width="1" fill="none">
    <line x1="100" y1="80" x2="150" y2="100"/>
    <line x1="100" y1="120" x2="150" y2="120"/>
    <line x1="100" y1="160" x2="150" y2="140"/>
    <line x1="100" y1="200" x2="150" y2="180"/>
  </g>
  
  <!-- Data packets -->
  <g transform="translate(120, 90)">
    <rect x="0" y="0" width="8" height="4" fill="rgba(255,255,255,0.6)" rx="2"/>
    <rect x="0" y="8" width="8" height="4" fill="rgba(255,255,255,0.4)" rx="2"/>
    <rect x="0" y="16" width="8" height="4" fill="rgba(255,255,255,0.5)" rx="2"/>
  </g>
</svg>