<svg width="400" height="300" viewBox="0 0 400 300" fill="none" xmlns="http://www.w3.org/2000/svg">
  <defs>
    <linearGradient id="project2Gradient" x1="0%" y1="0%" x2="100%" y2="100%">
      <stop offset="0%" style="stop-color:#667eea;stop-opacity:1" />
      <stop offset="100%" style="stop-color:#764ba2;stop-opacity:1" />
    </linearGradient>
    <linearGradient id="mobileGradient" x1="0%" y1="0%" x2="100%" y2="100%">
      <stop offset="0%" style="stop-color:#2c3e50;stop-opacity:1" />
      <stop offset="100%" style="stop-color:#34495e;stop-opacity:1" />
    </linearGradient>
    <filter id="mobileGlow">
      <feGaussianBlur stdDeviation="2" result="coloredBlur"/>
      <feMerge> 
        <feMergeNode in="coloredBlur"/>
        <feMergeNode in="SourceGraphic"/>
      </feMerge>
    </filter>
  </defs>
  
  <!-- Background -->
  <rect width="400" height="300" fill="url(#project2Gradient)"/>
  
  <!-- Mobile device -->
  <rect x="150" y="30" width="100" height="200" rx="20" fill="url(#mobileGradient)" filter="url(#mobileGlow)"/>
  
  <!-- Screen -->
  <rect x="160" y="50" width="80" height="160" rx="5" fill="#ffffff"/>
  
  <!-- Status bar -->
  <rect x="160" y="50" width="80" height="20" fill="#2c3e50"/>
  <circle cx="170" cy="60" r="2" fill="#27ae60"/>
  <circle cx="180" cy="60" r="2" fill="#f39c12"/>
  <circle cx="190" cy="60" r="2" fill="#e74c3c"/>
  
  <!-- App interface -->
  <rect x="170" y="80" width="60" height="30" rx="5" fill="#3498db"/>
  <rect x="170" y="120" width="60" height="20" rx="3" fill="#ecf0f1"/>
  <rect x="170" y="150" width="60" height="20" rx="3" fill="#ecf0f1"/>
  <rect x="170" y="180" width="60" height="20" rx="3" fill="#ecf0f1"/>
  
  <!-- Navigation -->
  <rect x="160" y="220" width="80" height="20" rx="10" fill="#34495e"/>
  <circle cx="180" cy="230" r="3" fill="#ffffff"/>
  <circle cx="200" cy="230" r="3" fill="#bdc3c7"/>
  <circle cx="220" cy="230" r="3" fill="#bdc3c7"/>
  
  <!-- Floating UI elements -->
  <g transform="translate(100, 80)">
    <rect x="0" y="0" width="30" height="20" rx="5" fill="rgba(255,255,255,0.2)" filter="url(#mobileGlow)"/>
    <rect x="5" y="5" width="20" height="10" fill="rgba(255,255,255,0.4)" rx="2"/>
  </g>
  
  <g transform="translate(280, 100)">
    <circle cx="0" cy="0" r="20" fill="rgba(255,255,255,0.15)" filter="url(#mobileGlow)"/>
    <circle cx="0" cy="0" r="10" fill="rgba(255,255,255,0.3)"/>
  </g>
  
  <!-- Data flow lines -->
  <g stroke="rgba(255,255,255,0.3)" stroke-width="2" fill="none">
    <path d="M80 100 Q150 120 200 100" stroke-dasharray="5,5"/>
    <path d="M300 120 Q250 140 200 120" stroke-dasharray="5,5"/>
  </g>
  
  <!-- Tech elements -->
  <g transform="translate(80, 200)">
    <rect x="0" y="0" width="4" height="30" fill="rgba(255,255,255,0.4)" rx="2"/>
    <rect x="8" y="5" width="4" height="25" fill="rgba(255,255,255,0.3)" rx="2"/>
    <rect x="16" y="10" width="4" height="20" fill="rgba(255,255,255,0.4)" rx="2"/>
    <rect x="24" y="0" width="4" height="30" fill="rgba(255,255,255,0.3)" rx="2"/>
  </g>
  
  <!-- Network nodes -->
  <circle cx="320" cy="80" r="8" fill="rgba(255,255,255,0.2)" filter="url(#mobileGlow)"/>
  <circle cx="320" cy="120" r="6" fill="rgba(255,255,255,0.15)" filter="url(#mobileGlow)"/>
  <circle cx="320" cy="160" r="10" fill="rgba(255,255,255,0.1)" filter="url(#mobileGlow)"/>
  
  <!-- Connection lines -->
  <g stroke="rgba(255,255,255,0.2)" stroke-width="1" fill="none">
    <line x1="320" y1="80" x2="200" y2="100"/>
    <line x1="320" y1="120" x2="200" y2="120"/>
    <line x1="320" y1="160" x2="200" y2="140"/>
  </g>
</svg>