<svg width="200" height="200" viewBox="0 0 200 200" fill="none" xmlns="http://www.w3.org/2000/svg">
<rect width="200" height="200" fill="white"/>
<rect x="20" y="20" width="160" height="160" fill="black"/>
<rect x="30" y="30" width="20" height="20" fill="white"/>
<rect x="60" y="30" width="20" height="20" fill="white"/>
<rect x="90" y="30" width="20" height="20" fill="white"/>
<rect x="120" y="30" width="20" height="20" fill="white"/>
<rect x="150" y="30" width="20" height="20" fill="white"/>
<rect x="30" y="60" width="20" height="20" fill="white"/>
<rect x="60" y="60" width="20" height="20" fill="black"/>
<rect x="90" y="60" width="20" height="20" fill="white"/>
<rect x="120" y="60" width="20" height="20" fill="black"/>
<rect x="150" y="60" width="20" height="20" fill="white"/>
<rect x="30" y="90" width="20" height="20" fill="white"/>
<rect x="60" y="90" width="20" height="20" fill="white"/>
<rect x="90" y="90" width="20" height="20" fill="black"/>
<rect x="120" y="90" width="20" height="20" fill="white"/>
<rect x="150" y="90" width="20" height="20" fill="black"/>
<rect x="30" y="120" width="20" height="20" fill="white"/>
<rect x="60" y="120" width="20" height="20" fill="black"/>
<rect x="90" y="120" width="20" height="20" fill="white"/>
<rect x="120" y="120" width="20" height="20" fill="black"/>
<rect x="150" y="120" width="20" height="20" fill="white"/>
<rect x="30" y="150" width="20" height="20" fill="white"/>
<rect x="60" y="150" width="20" height="20" fill="white"/>
<rect x="90" y="150" width="20" height="20" fill="black"/>
<rect x="120" y="150" width="20" height="20" fill="white"/>
<rect x="150" y="150" width="20" height="20" fill="black"/>
<text x="100" y="190" font-family="Arial, sans-serif" font-size="8" fill="#666666" text-anchor="middle">Portfolio QR</text>
</svg>
