<svg width="200" height="200" viewBox="0 0 200 200" fill="none" xmlns="http://www.w3.org/2000/svg">
  <defs>
    <linearGradient id="qrGradient" x1="0%" y1="0%" x2="100%" y2="100%">
      <stop offset="0%" style="stop-color:#2c3e50;stop-opacity:1" />
      <stop offset="100%" style="stop-color:#34495e;stop-opacity:1" />
    </linearGradient>
    <filter id="qrGlow">
      <feGaussianBlur stdDeviation="1" result="coloredBlur"/>
      <feMerge> 
        <feMergeNode in="coloredBlur"/>
        <feMergeNode in="SourceGraphic"/>
      </feMerge>
    </filter>
  </defs>
  
  <!-- Background -->
  <rect width="200" height="200" fill="#ffffff" rx="10"/>
  
  <!-- QR Code pattern -->
  <!-- Top-left corner -->
  <rect x="20" y="20" width="40" height="40" fill="url(#qrGradient)"/>
  <rect x="30" y="30" width="20" height="20" fill="#ffffff"/>
  <rect x="35" y="35" width="10" height="10" fill="url(#qrGradient)"/>
  
  <!-- Top-right corner -->
  <rect x="140" y="20" width="40" height="40" fill="url(#qrGradient)"/>
  <rect x="150" y="30" width="20" height="20" fill="#ffffff"/>
  <rect x="155" y="35" width="10" height="10" fill="url(#qrGradient)"/>
  
  <!-- Bottom-left corner -->
  <rect x="20" y="140" width="40" height="40" fill="url(#qrGradient)"/>
  <rect x="30" y="150" width="20" height="20" fill="#ffffff"/>
  <rect x="35" y="155" width="10" height="10" fill="url(#qrGradient)"/>
  
  <!-- Data modules -->
  <rect x="80" y="20" width="10" height="10" fill="url(#qrGradient)"/>
  <rect x="100" y="20" width="10" height="10" fill="url(#qrGradient)"/>
  <rect x="120" y="20" width="10" height="10" fill="url(#qrGradient)"/>
  
  <rect x="80" y="40" width="10" height="10" fill="url(#qrGradient)"/>
  <rect x="100" y="40" width="10" height="10" fill="url(#qrGradient)"/>
  <rect x="120" y="40" width="10" height="10" fill="url(#qrGradient)"/>
  
  <rect x="80" y="60" width="10" height="10" fill="url(#qrGradient)"/>
  <rect x="100" y="60" width="10" height="10" fill="url(#qrGradient)"/>
  <rect x="120" y="60" width="10" height="10" fill="url(#qrGradient)"/>
  
  <rect x="80" y="80" width="10" height="10" fill="url(#qrGradient)"/>
  <rect x="100" y="80" width="10" height="10" fill="url(#qrGradient)"/>
  <rect x="120" y="80" width="10" height="10" fill="url(#qrGradient)"/>
  
  <rect x="80" y="100" width="10" height="10" fill="url(#qrGradient)"/>
  <rect x="100" y="100" width="10" height="10" fill="url(#qrGradient)"/>
  <rect x="120" y="100" width="10" height="10" fill="url(#qrGradient)"/>
  
  <rect x="80" y="120" width="10" height="10" fill="url(#qrGradient)"/>
  <rect x="100" y="120" width="10" height="10" fill="url(#qrGradient)"/>
  <rect x="120" y="120" width="10" height="10" fill="url(#qrGradient)"/>
  
  <rect x="80" y="140" width="10" height="10" fill="url(#qrGradient)"/>
  <rect x="100" y="140" width="10" height="10" fill="url(#qrGradient)"/>
  <rect x="120" y="140" width="10" height="10" fill="url(#qrGradient)"/>
  
  <rect x="80" y="160" width="10" height="10" fill="url(#qrGradient)"/>
  <rect x="100" y="160" width="10" height="10" fill="url(#qrGradient)"/>
  <rect x="120" y="160" width="10" height="10" fill="url(#qrGradient)"/>
  
  <rect x="80" y="180" width="10" height="10" fill="url(#qrGradient)"/>
  <rect x="100" y="180" width="10" height="10" fill="url(#qrGradient)"/>
  <rect x="120" y="180" width="10" height="10" fill="url(#qrGradient)"/>
  
  <!-- Additional data modules -->
  <rect x="20" y="80" width="10" height="10" fill="url(#qrGradient)"/>
  <rect x="40" y="80" width="10" height="10" fill="url(#qrGradient)"/>
  <rect x="60" y="80" width="10" height="10" fill="url(#qrGradient)"/>
  
  <rect x="20" y="100" width="10" height="10" fill="url(#qrGradient)"/>
  <rect x="40" y="100" width="10" height="10" fill="url(#qrGradient)"/>
  <rect x="60" y="100" width="10" height="10" fill="url(#qrGradient)"/>
  
  <rect x="20" y="120" width="10" height="10" fill="url(#qrGradient)"/>
  <rect x="40" y="120" width="10" height="10" fill="url(#qrGradient)"/>
  <rect x="60" y="120" width="10" height="10" fill="url(#qrGradient)"/>
  
  <!-- Decorative elements -->
  <circle cx="100" cy="100" r="5" fill="rgba(52, 152, 219, 0.3)" filter="url(#qrGlow)"/>
  <circle cx="100" cy="100" r="2" fill="rgba(52, 152, 219, 0.6)"/>
</svg>