<svg width="200" height="200" viewBox="0 0 200 200" xmlns="http://www.w3.org/2000/svg">
  <defs>
    <linearGradient id="qrGradient" x1="0%" y1="0%" x2="100%" y2="100%">
      <stop offset="0%" style="stop-color:#ffffff;stop-opacity:1" />
      <stop offset="100%" style="stop-color:#f8fafc;stop-opacity:1" />
    </linearGradient>
    <linearGradient id="qrAccent" x1="0%" y1="0%" x2="100%" y2="0%">
      <stop offset="0%" style="stop-color:#3b82f6;stop-opacity:1" />
      <stop offset="100%" style="stop-color:#8b5cf6;stop-opacity:1" />
    </linearGradient>
  </defs>
  
  <!-- Background -->
  <rect width="200" height="200" fill="url(#qrGradient)" rx="12"/>
  
  <!-- QR Code Pattern -->
  <!-- Top-left corner -->
  <rect x="20" y="20" width="40" height="40" fill="#1e293b"/>
  <rect x="30" y="30" width="20" height="20" fill="white"/>
  <rect x="35" y="35" width="10" height="10" fill="#1e293b"/>
  
  <!-- Top-right corner -->
  <rect x="140" y="20" width="40" height="40" fill="#1e293b"/>
  <rect x="150" y="30" width="20" height="20" fill="white"/>
  <rect x="155" y="35" width="10" height="10" fill="#1e293b"/>
  
  <!-- Bottom-left corner -->
  <rect x="20" y="140" width="40" height="40" fill="#1e293b"/>
  <rect x="30" y="150" width="20" height="20" fill="white"/>
  <rect x="35" y="155" width="10" height="10" fill="#1e293b"/>
  
  <!-- QR Code Data Modules -->
  <!-- Row 1 -->
  <rect x="70" y="20" width="10" height="10" fill="#1e293b"/>
  <rect x="90" y="20" width="10" height="10" fill="#1e293b"/>
  <rect x="110" y="20" width="10" height="10" fill="#1e293b"/>
  <rect x="130" y="20" width="10" height="10" fill="#1e293b"/>
  
  <!-- Row 2 -->
  <rect x="70" y="30" width="10" height="10" fill="#1e293b"/>
  <rect x="90" y="30" width="10" height="10" fill="#1e293b"/>
  <rect x="110" y="30" width="10" height="10" fill="#1e293b"/>
  <rect x="130" y="30" width="10" height="10" fill="#1e293b"/>
  
  <!-- Row 3 -->
  <rect x="70" y="40" width="10" height="10" fill="#1e293b"/>
  <rect x="90" y="40" width="10" height="10" fill="#1e293b"/>
  <rect x="110" y="40" width="10" height="10" fill="#1e293b"/>
  <rect x="130" y="40" width="10" height="10" fill="#1e293b"/>
  
  <!-- Row 4 -->
  <rect x="70" y="50" width="10" height="10" fill="#1e293b"/>
  <rect x="90" y="50" width="10" height="10" fill="#1e293b"/>
  <rect x="110" y="50" width="10" height="10" fill="#1e293b"/>
  <rect x="130" y="50" width="10" height="10" fill="#1e293b"/>
  
  <!-- Row 5 -->
  <rect x="70" y="60" width="10" height="10" fill="#1e293b"/>
  <rect x="90" y="60" width="10" height="10" fill="#1e293b"/>
  <rect x="110" y="60" width="10" height="10" fill="#1e293b"/>
  <rect x="130" y="60" width="10" height="10" fill="#1e293b"/>
  
  <!-- Row 6 -->
  <rect x="70" y="70" width="10" height="10" fill="#1e293b"/>
  <rect x="90" y="70" width="10" height="10" fill="#1e293b"/>
  <rect x="110" y="70" width="10" height="10" fill="#1e293b"/>
  <rect x="130" y="70" width="10" height="10" fill="#1e293b"/>
  
  <!-- Row 7 -->
  <rect x="70" y="80" width="10" height="10" fill="#1e293b"/>
  <rect x="90" y="80" width="10" height="10" fill="#1e293b"/>
  <rect x="110" y="80" width="10" height="10" fill="#1e293b"/>
  <rect x="130" y="80" width="10" height="10" fill="#1e293b"/>
  
  <!-- Row 8 -->
  <rect x="70" y="90" width="10" height="10" fill="#1e293b"/>
  <rect x="90" y="90" width="10" height="10" fill="#1e293b"/>
  <rect x="110" y="90" width="10" height="10" fill="#1e293b"/>
  <rect x="130" y="90" width="10" height="10" fill="#1e293b"/>
  
  <!-- Row 9 -->
  <rect x="70" y="100" width="10" height="10" fill="#1e293b"/>
  <rect x="90" y="100" width="10" height="10" fill="#1e293b"/>
  <rect x="110" y="100" width="10" height="10" fill="#1e293b"/>
  <rect x="130" y="100" width="10" height="10" fill="#1e293b"/>
  
  <!-- Row 10 -->
  <rect x="70" y="110" width="10" height="10" fill="#1e293b"/>
  <rect x="90" y="110" width="10" height="10" fill="#1e293b"/>
  <rect x="110" y="110" width="10" height="10" fill="#1e293b"/>
  <rect x="130" y="110" width="10" height="10" fill="#1e293b"/>
  
  <!-- Row 11 -->
  <rect x="70" y="120" width="10" height="10" fill="#1e293b"/>
  <rect x="90" y="120" width="10" height="10" fill="#1e293b"/>
  <rect x="110" y="120" width="10" height="10" fill="#1e293b"/>
  <rect x="130" y="120" width="10" height="10" fill="#1e293b"/>
  
  <!-- Row 12 -->
  <rect x="70" y="130" width="10" height="10" fill="#1e293b"/>
  <rect x="90" y="130" width="10" height="10" fill="#1e293b"/>
  <rect x="110" y="130" width="10" height="10" fill="#1e293b"/>
  <rect x="130" y="130" width="10" height="10" fill="#1e293b"/>
  
  <!-- Row 13 -->
  <rect x="70" y="140" width="10" height="10" fill="#1e293b"/>
  <rect x="90" y="140" width="10" height="10" fill="#1e293b"/>
  <rect x="110" y="140" width="10" height="10" fill="#1e293b"/>
  <rect x="130" y="140" width="10" height="10" fill="#1e293b"/>
  
  <!-- Row 14 -->
  <rect x="70" y="150" width="10" height="10" fill="#1e293b"/>
  <rect x="90" y="150" width="10" height="10" fill="#1e293b"/>
  <rect x="110" y="150" width="10" height="10" fill="#1e293b"/>
  <rect x="130" y="150" width="10" height="10" fill="#1e293b"/>
  
  <!-- Row 15 -->
  <rect x="70" y="160" width="10" height="10" fill="#1e293b"/>
  <rect x="90" y="160" width="10" height="10" fill="#1e293b"/>
  <rect x="110" y="160" width="10" height="10" fill="#1e293b"/>
  <rect x="130" y="160" width="10" height="10" fill="#1e293b"/>
  
  <!-- Row 16 -->
  <rect x="70" y="170" width="10" height="10" fill="#1e293b"/>
  <rect x="90" y="170" width="10" height="10" fill="#1e293b"/>
  <rect x="110" y="170" width="10" height="10" fill="#1e293b"/>
  <rect x="130" y="170" width="10" height="10" fill="#1e293b"/>
  
  <!-- Central Logo Area -->
  <circle cx="100" cy="100" r="15" fill="url(#qrAccent)" opacity="0.9"/>
  <text x="95" y="105" font-family="Inter, sans-serif" font-size="12" font-weight="700" fill="white">SY</text>
  
  <!-- Border -->
  <rect x="10" y="10" width="180" height="180" rx="12" fill="none" stroke="url(#qrAccent)" stroke-width="3"/>
  
  <!-- Corner decorations -->
  <rect x="15" y="15" width="10" height="10" fill="url(#qrAccent)" rx="2"/>
  <rect x="175" y="15" width="10" height="10" fill="url(#qrAccent)" rx="2"/>
  <rect x="15" y="175" width="10" height="10" fill="url(#qrAccent)" rx="2"/>
  <rect x="175" y="175" width="10" height="10" fill="url(#qrAccent)" rx="2"/>
</svg>